<svg width="132" height="90" viewBox="0 0 132 90" fill="none" xmlns="http://www.w3.org/2000/svg">
<rect width="132" height="90" fill="white"/>
<g clip-path="url(#clip0_1_95)">
<path d="M30.52 32V52.16L33.12 52.17V42.57H39.37V40.03H33.11V34.53H41.26V32H30.52ZM45.92 36.1C46.3709 36.1 46.8033 35.9209 47.1221 35.6021C47.4409 35.2833 47.62 34.8509 47.62 34.4C47.62 33.9491 47.4409 33.5167 47.1221 33.1979C46.8033 32.8791 46.3709 32.7 45.92 32.7C45.4692 32.7 45.0367 32.8791 44.7179 33.1979C44.3991 33.5167 44.22 33.9491 44.22 34.4C44.22 34.8509 44.3991 35.2833 44.7179 35.6021C45.0367 35.9209 45.4692 36.1 45.92 36.1ZM44.61 38.63V52.17H47.21V38.63H44.61Z" fill="black"/>
<path fill-rule="evenodd" clip-rule="evenodd" d="M56.82 38.24C53.38 38.24 50.98 41.15 50.98 44.61C50.98 48.07 53.38 50.98 56.82 50.98C58.4 50.98 59.7 50.38 60.65 49.38V51.18C60.6566 51.7178 60.5565 52.2516 60.3556 52.7506C60.1546 53.2495 59.8568 53.7036 59.4792 54.0867C59.1017 54.4699 58.652 54.7743 58.1561 54.9826C57.6601 55.1908 57.1279 55.2987 56.59 55.3C55.76 55.3 54.94 54.98 54.29 54.52L52.99 56.77C53.9952 57.4198 55.1572 57.7862 56.3533 57.8306C57.5494 57.875 58.7353 57.5957 59.786 57.0223C60.8366 56.4489 61.713 55.6025 62.3227 54.5724C62.9323 53.5424 63.2527 52.3669 63.25 51.17V38.64H60.65V39.85C59.7 38.85 58.4 38.25 56.82 38.25V38.24ZM53.57 44.61C53.57 42.46 55.21 40.77 57.11 40.77C59.01 40.77 60.64 42.47 60.64 44.61C60.64 46.76 59 48.44 57.11 48.44C55.21 48.44 53.57 46.76 53.57 44.61Z" fill="black"/>
<path d="M72.59 40.77C71.8464 40.7831 71.1378 41.0884 70.6176 41.6199C70.0973 42.1514 69.8072 42.8663 69.81 43.61V52.17H67.21V38.63H69.81V39.87C70.199 39.3544 70.7042 38.9381 71.2847 38.6548C71.8651 38.3716 72.5042 38.2294 73.15 38.24C74.97 38.24 76.37 39.14 77.17 40.52C77.6163 39.8282 78.2271 39.2578 78.9479 38.8599C79.6686 38.462 80.4767 38.249 81.3 38.24C84.25 38.24 86.1 40.62 86.1 43.57V52.17H83.52V43.6C83.5227 42.8563 83.2326 42.1414 82.7123 41.6099C82.1921 41.0784 81.4836 40.7731 80.74 40.76C79.9964 40.7731 79.2878 41.0784 78.7676 41.6099C78.2473 42.1414 77.9572 42.8563 77.96 43.6V52.16H75.36V43.6C75.3628 42.858 75.074 42.1446 74.5559 41.6134C74.0378 41.0822 73.3318 40.7757 72.59 40.76V40.77Z" fill="black"/>
<path fill-rule="evenodd" clip-rule="evenodd" d="M99.93 40.17C99.3396 39.5544 98.6298 39.0657 97.844 38.7338C97.0582 38.402 96.213 38.2339 95.36 38.24C91.5 38.24 88.76 41.5 88.76 45.4C88.76 49.3 91.5 52.56 95.36 52.56C96.2127 52.5643 97.0574 52.3955 97.843 52.0637C98.6285 51.732 99.3385 51.2442 99.93 50.63V52.17H102.52V38.63H99.92V40.17H99.93ZM91.35 45.4C91.35 42.82 93.33 40.77 95.64 40.77C97.94 40.77 99.93 42.82 99.93 45.4C99.93 47.98 97.95 50.02 95.64 50.02C93.34 50.02 91.35 47.98 91.35 45.4Z" fill="black"/>
</g>
<defs>
<clipPath id="clip0_1_95">
<rect width="73" height="26" fill="white" transform="translate(30 32)"/>
</clipPath>
</defs>
</svg>
